<mxfile host="app.diagrams.net" modified="2025-10-26T00:00:00.000Z" agent="Copilot" version="24.7.17">
  <diagram id="aws-architecture" name="Giravanz Match - AWS Architecture">
    <mxGraphModel dx="1434" dy="790" grid="1" gridSize="10" guides="1" tooltips="1" connect="1" arrows="1" fold="1" page="1" pageScale="1" pageWidth="1169" pageHeight="827" math="0" shadow="0">
      <root>
        <mxCell id="0" />
        <mxCell id="1" parent="0" />
        
        <!-- Title -->
        <mxCell id="title" value="&lt;font style=&quot;font-size: 24px;&quot;&gt;&lt;b&gt;Giravanz Match - AWS Architecture&lt;/b&gt;&lt;/font&gt;&lt;br&gt;&lt;font style=&quot;font-size: 12px;&quot;&gt;FastAPI + Lambda + CloudFront&lt;/font&gt;" style="text;html=1;strokeColor=none;fillColor=none;align=center;verticalAlign=middle;whiteSpace=wrap;rounded=0;" vertex="1" parent="1">
          <mxGeometry x="340" y="30" width="490" height="60" as="geometry" />
        </mxCell>

        <!-- User -->
        <mxCell id="user" value="" style="sketch=0;outlineConnect=0;fontColor=#232F3E;gradientColor=none;fillColor=#232F3D;strokeColor=none;dashed=0;verticalLabelPosition=bottom;verticalAlign=top;align=center;html=1;fontSize=12;fontStyle=0;aspect=fixed;pointerEvents=1;shape=mxgraph.aws4.user;" vertex="1" parent="1">
          <mxGeometry x="80" y="300" width="78" height="78" as="geometry" />
        </mxCell>
        <mxCell id="user-label" value="&lt;b&gt;User&lt;/b&gt;" style="text;html=1;strokeColor=none;fillColor=none;align=center;verticalAlign=middle;whiteSpace=wrap;rounded=0;" vertex="1" parent="1">
          <mxGeometry x="69" y="388" width="100" height="30" as="geometry" />
        </mxCell>

        <!-- CloudFront -->
        <mxCell id="cloudfront" value="" style="sketch=0;points=[[0,0,0],[0.25,0,0],[0.5,0,0],[0.75,0,0],[1,0,0],[0,1,0],[0.25,1,0],[0.5,1,0],[0.75,1,0],[1,1,0],[0,0.25,0],[0,0.5,0],[0,0.75,0],[1,0.25,0],[1,0.5,0],[1,0.75,0]];outlineConnect=0;fontColor=#232F3E;fillColor=#8C4FFF;strokeColor=#ffffff;dashed=0;verticalLabelPosition=bottom;verticalAlign=top;align=center;html=1;fontSize=12;fontStyle=0;aspect=fixed;shape=mxgraph.aws4.resourceIcon;resIcon=mxgraph.aws4.cloudfront;" vertex="1" parent="1">
          <mxGeometry x="280" y="300" width="78" height="78" as="geometry" />
        </mxCell>
        <mxCell id="cloudfront-label" value="&lt;b&gt;CloudFront&lt;/b&gt;&lt;br&gt;Distribution" style="text;html=1;strokeColor=none;fillColor=none;align=center;verticalAlign=middle;whiteSpace=wrap;rounded=0;" vertex="1" parent="1">
          <mxGeometry x="269" y="388" width="100" height="40" as="geometry" />
        </mxCell>

        <!-- S3 Bucket (Frontend) -->
        <mxCell id="s3-frontend" value="" style="sketch=0;points=[[0,0,0],[0.25,0,0],[0.5,0,0],[0.75,0,0],[1,0,0],[0,1,0],[0.25,1,0],[0.5,1,0],[0.75,1,0],[1,1,0],[0,0.25,0],[0,0.5,0],[0,0.75,0],[1,0.25,0],[1,0.5,0],[1,0.75,0]];outlineConnect=0;fontColor=#232F3E;fillColor=#7AA116;strokeColor=#ffffff;dashed=0;verticalLabelPosition=bottom;verticalAlign=top;align=center;html=1;fontSize=12;fontStyle=0;aspect=fixed;shape=mxgraph.aws4.resourceIcon;resIcon=mxgraph.aws4.s3;" vertex="1" parent="1">
          <mxGeometry x="480" y="180" width="78" height="78" as="geometry" />
        </mxCell>
        <mxCell id="s3-frontend-label" value="&lt;b&gt;S3 Bucket&lt;/b&gt;&lt;br&gt;Frontend Assets&lt;br&gt;(React SPA)" style="text;html=1;strokeColor=none;fillColor=none;align=center;verticalAlign=middle;whiteSpace=wrap;rounded=0;" vertex="1" parent="1">
          <mxGeometry x="464" y="268" width="110" height="50" as="geometry" />
        </mxCell>

        <!-- API Gateway HTTP API -->
        <mxCell id="apigw" value="" style="sketch=0;points=[[0,0,0],[0.25,0,0],[0.5,0,0],[0.75,0,0],[1,0,0],[0,1,0],[0.25,1,0],[0.5,1,0],[0.75,1,0],[1,1,0],[0,0.25,0],[0,0.5,0],[0,0.75,0],[1,0.25,0],[1,0.5,0],[1,0.75,0]];outlineConnect=0;fontColor=#232F3E;fillColor=#E7157B;strokeColor=#ffffff;dashed=0;verticalLabelPosition=bottom;verticalAlign=top;align=center;html=1;fontSize=12;fontStyle=0;aspect=fixed;shape=mxgraph.aws4.resourceIcon;resIcon=mxgraph.aws4.api_gateway;" vertex="1" parent="1">
          <mxGeometry x="480" y="410" width="78" height="78" as="geometry" />
        </mxCell>
        <mxCell id="apigw-label" value="&lt;b&gt;API Gateway&lt;/b&gt;&lt;br&gt;HTTP API&lt;br&gt;(29s timeout)" style="text;html=1;strokeColor=none;fillColor=none;align=center;verticalAlign=middle;whiteSpace=wrap;rounded=0;" vertex="1" parent="1">
          <mxGeometry x="459" y="498" width="120" height="50" as="geometry" />
        </mxCell>

        <!-- Lambda Function -->
        <mxCell id="lambda" value="" style="sketch=0;points=[[0,0,0],[0.25,0,0],[0.5,0,0],[0.75,0,0],[1,0,0],[0,1,0],[0.25,1,0],[0.5,1,0],[0.75,1,0],[1,1,0],[0,0.25,0],[0,0.5,0],[0,0.75,0],[1,0.25,0],[1,0.5,0],[1,0.75,0]];outlineConnect=0;fontColor=#232F3E;fillColor=#ED7100;strokeColor=#ffffff;dashed=0;verticalLabelPosition=bottom;verticalAlign=top;align=center;html=1;fontSize=12;fontStyle=0;aspect=fixed;shape=mxgraph.aws4.resourceIcon;resIcon=mxgraph.aws4.lambda;" vertex="1" parent="1">
          <mxGeometry x="700" y="410" width="78" height="78" as="geometry" />
        </mxCell>
        <mxCell id="lambda-label" value="&lt;b&gt;Lambda Function&lt;/b&gt;&lt;br&gt;FastAPI + Mangum&lt;br&gt;Python 3.12&lt;br&gt;60s timeout / 512MB" style="text;html=1;strokeColor=none;fillColor=none;align=center;verticalAlign=middle;whiteSpace=wrap;rounded=0;" vertex="1" parent="1">
          <mxGeometry x="664" y="498" width="150" height="70" as="geometry" />
        </mxCell>

        <!-- Secrets Manager -->
        <mxCell id="secrets" value="" style="sketch=0;points=[[0,0,0],[0.25,0,0],[0.5,0,0],[0.75,0,0],[1,0,0],[0,1,0],[0.25,1,0],[0.5,1,0],[0.75,1,0],[1,1,0],[0,0.25,0],[0,0.5,0],[0,0.75,0],[1,0.25,0],[1,0.5,0],[1,0.75,0]];outlineConnect=0;fontColor=#232F3E;fillColor=#DD344C;strokeColor=#ffffff;dashed=0;verticalLabelPosition=bottom;verticalAlign=top;align=center;html=1;fontSize=12;fontStyle=0;aspect=fixed;shape=mxgraph.aws4.resourceIcon;resIcon=mxgraph.aws4.secrets_manager;" vertex="1" parent="1">
          <mxGeometry x="920" y="410" width="78" height="78" as="geometry" />
        </mxCell>
        <mxCell id="secrets-label" value="&lt;b&gt;Secrets Manager&lt;/b&gt;&lt;br&gt;GOOGLE_API_KEY" style="text;html=1;strokeColor=none;fillColor=none;align=center;verticalAlign=middle;whiteSpace=wrap;rounded=0;" vertex="1" parent="1">
          <mxGeometry x="899" y="498" width="120" height="50" as="geometry" />
        </mxCell>

        <!-- CloudWatch Logs -->
        <mxCell id="cloudwatch" value="" style="sketch=0;points=[[0,0,0],[0.25,0,0],[0.5,0,0],[0.75,0,0],[1,0,0],[0,1,0],[0.25,1,0],[0.5,1,0],[0.75,1,0],[1,1,0],[0,0.25,0],[0,0.5,0],[0,0.75,0],[1,0.25,0],[1,0.5,0],[1,0.75,0]];outlineConnect=0;fontColor=#232F3E;fillColor=#E7157B;strokeColor=#ffffff;dashed=0;verticalLabelPosition=bottom;verticalAlign=top;align=center;html=1;fontSize=12;fontStyle=0;aspect=fixed;shape=mxgraph.aws4.resourceIcon;resIcon=mxgraph.aws4.cloudwatch;" vertex="1" parent="1">
          <mxGeometry x="700" y="600" width="78" height="78" as="geometry" />
        </mxCell>
        <mxCell id="cloudwatch-label" value="&lt;b&gt;CloudWatch Logs&lt;/b&gt;&lt;br&gt;Lambda + API GW Logs" style="text;html=1;strokeColor=none;fillColor=none;align=center;verticalAlign=middle;whiteSpace=wrap;rounded=0;" vertex="1" parent="1">
          <mxGeometry x="664" y="688" width="150" height="40" as="geometry" />
        </mxCell>

        <!-- Google Gemini API - 四角形＋テキストで表現 -->
        <mxCell id="gemini-box" value="" style="rounded=1;whiteSpace=wrap;html=1;fillColor=#4285F4;strokeColor=#1a73e8;strokeWidth=2;" vertex="1" parent="1">
          <mxGeometry x="899" y="600" width="120" height="78" as="geometry" />
        </mxCell>
        <mxCell id="gemini-icon" value="&lt;font style=&quot;font-size: 36px;&quot; color=&quot;#ffffff&quot;&gt;✨&lt;/font&gt;" style="text;html=1;strokeColor=none;fillColor=none;align=center;verticalAlign=middle;whiteSpace=wrap;rounded=0;" vertex="1" parent="1">
          <mxGeometry x="919" y="615" width="80" height="48" as="geometry" />
        </mxCell>
        <mxCell id="gemini-label" value="&lt;b&gt;Google Gemini&lt;/b&gt;&lt;br&gt;gemini-2.5-flash&lt;br&gt;Question Gen&lt;br&gt;Diagnosis (~29s)" style="text;html=1;strokeColor=none;fillColor=none;align=center;verticalAlign=middle;whiteSpace=wrap;rounded=0;" vertex="1" parent="1">
          <mxGeometry x="889" y="688" width="140" height="60" as="geometry" />
        </mxCell>

        <!-- Flow Arrows -->
        <!-- User to CloudFront -->
        <mxCell id="flow1" value="" style="edgeStyle=orthogonalEdgeStyle;rounded=0;orthogonalLoop=1;jettySize=auto;html=1;strokeWidth=2;strokeColor=#0066CC;endArrow=classic;endFill=1;" edge="1" parent="1" source="user" target="cloudfront">
          <mxGeometry relative="1" as="geometry" />
        </mxCell>
        <mxCell id="flow1-label" value="HTTPS" style="edgeLabel;html=1;align=center;verticalAlign=middle;resizable=0;points=[];fontSize=11;fontColor=#0066CC;" vertex="1" connectable="0" parent="flow1">
          <mxGeometry x="-0.1" y="1" relative="1" as="geometry">
            <mxPoint y="-10" as="offset" />
          </mxGeometry>
        </mxCell>

        <!-- CloudFront to S3 -->
        <mxCell id="flow2" value="" style="edgeStyle=orthogonalEdgeStyle;rounded=0;orthogonalLoop=1;jettySize=auto;html=1;strokeWidth=2;strokeColor=#7AA116;endArrow=classic;endFill=1;entryX=0;entryY=0.5;entryDx=0;entryDy=0;entryPerimeter=0;exitX=0.75;exitY=0;exitDx=0;exitDy=0;exitPerimeter=0;" edge="1" parent="1" source="cloudfront" target="s3-frontend">
          <mxGeometry relative="1" as="geometry" />
        </mxCell>
        <mxCell id="flow2-label" value="Origin (OAC)&lt;br&gt;Static Assets" style="edgeLabel;html=1;align=center;verticalAlign=middle;resizable=0;points=[];fontSize=11;fontColor=#7AA116;" vertex="1" connectable="0" parent="flow2">
          <mxGeometry x="0.1" y="1" relative="1" as="geometry">
            <mxPoint x="10" y="-15" as="offset" />
          </mxGeometry>
        </mxCell>

        <!-- CloudFront to API Gateway -->
        <mxCell id="flow3" value="" style="edgeStyle=orthogonalEdgeStyle;rounded=0;orthogonalLoop=1;jettySize=auto;html=1;strokeWidth=2;strokeColor=#E7157B;endArrow=classic;endFill=1;entryX=0;entryY=0.5;entryDx=0;entryDy=0;entryPerimeter=0;exitX=0.75;exitY=1;exitDx=0;exitDy=0;exitPerimeter=0;" edge="1" parent="1" source="cloudfront" target="apigw">
          <mxGeometry relative="1" as="geometry" />
        </mxCell>
        <mxCell id="flow3-label" value="/api/*&lt;br&gt;CORS Proxy" style="edgeLabel;html=1;align=center;verticalAlign=middle;resizable=0;points=[];fontSize=11;fontColor=#E7157B;" vertex="1" connectable="0" parent="flow3">
          <mxGeometry x="0.1" y="1" relative="1" as="geometry">
            <mxPoint x="10" y="15" as="offset" />
          </mxGeometry>
        </mxCell>

        <!-- API Gateway to Lambda -->
        <mxCell id="flow4" value="" style="edgeStyle=orthogonalEdgeStyle;rounded=0;orthogonalLoop=1;jettySize=auto;html=1;strokeWidth=2;strokeColor=#ED7100;endArrow=classic;endFill=1;entryX=0;entryY=0.5;entryDx=0;entryDy=0;entryPerimeter=0;" edge="1" parent="1" source="apigw" target="lambda">
          <mxGeometry relative="1" as="geometry" />
        </mxCell>
        <mxCell id="flow4-label" value="AWS_PROXY&lt;br&gt;Integration" style="edgeLabel;html=1;align=center;verticalAlign=middle;resizable=0;points=[];fontSize=11;fontColor=#ED7100;" vertex="1" connectable="0" parent="flow4">
          <mxGeometry x="-0.1" y="1" relative="1" as="geometry">
            <mxPoint y="-15" as="offset" />
          </mxGeometry>
        </mxCell>

        <!-- Lambda to Secrets Manager -->
        <mxCell id="flow5" value="" style="edgeStyle=orthogonalEdgeStyle;rounded=0;orthogonalLoop=1;jettySize=auto;html=1;strokeWidth=2;strokeColor=#DD344C;endArrow=classic;endFill=1;dashed=1;" edge="1" parent="1" source="lambda" target="secrets">
          <mxGeometry relative="1" as="geometry" />
        </mxCell>
        <mxCell id="flow5-label" value="GetSecretValue&lt;br&gt;(Startup)" style="edgeLabel;html=1;align=center;verticalAlign=middle;resizable=0;points=[];fontSize=11;fontColor=#DD344C;" vertex="1" connectable="0" parent="flow5">
          <mxGeometry x="-0.1" y="1" relative="1" as="geometry">
            <mxPoint y="-15" as="offset" />
          </mxGeometry>
        </mxCell>

        <!-- Lambda to CloudWatch -->
        <mxCell id="flow6" value="" style="edgeStyle=orthogonalEdgeStyle;rounded=0;orthogonalLoop=1;jettySize=auto;html=1;strokeWidth=2;strokeColor=#E7157B;endArrow=classic;endFill=1;dashed=1;" edge="1" parent="1" source="lambda" target="cloudwatch">
          <mxGeometry relative="1" as="geometry" />
        </mxCell>
        <mxCell id="flow6-label" value="PutLogEvents" style="edgeLabel;html=1;align=center;verticalAlign=middle;resizable=0;points=[];fontSize=11;fontColor=#E7157B;" vertex="1" connectable="0" parent="flow6">
          <mxGeometry x="-0.1" y="1" relative="1" as="geometry">
            <mxPoint x="20" as="offset" />
          </mxGeometry>
        </mxCell>

        <!-- Lambda to Gemini -->
        <mxCell id="flow7" value="" style="edgeStyle=orthogonalEdgeStyle;rounded=0;orthogonalLoop=1;jettySize=auto;html=1;strokeWidth=2;strokeColor=#4285F4;endArrow=classic;endFill=1;entryX=0;entryY=0.5;entryDx=0;entryDy=0;exitX=1;exitY=0.75;exitDx=0;exitDy=0;exitPerimeter=0;" edge="1" parent="1" source="lambda" target="gemini-box">
          <mxGeometry relative="1" as="geometry" />
        </mxCell>
        <mxCell id="flow7-label" value="HTTPS&lt;br&gt;AI Request" style="edgeLabel;html=1;align=center;verticalAlign=middle;resizable=0;points=[];fontSize=11;fontColor=#4285F4;" vertex="1" connectable="0" parent="flow7">
          <mxGeometry x="0.1" y="1" relative="1" as="geometry">
            <mxPoint x="5" y="-15" as="offset" />
          </mxGeometry>
        </mxCell>

        <!-- API Gateway to CloudWatch -->
        <mxCell id="flow8" value="" style="edgeStyle=orthogonalEdgeStyle;rounded=0;orthogonalLoop=1;jettySize=auto;html=1;strokeWidth=2;strokeColor=#E7157B;endArrow=classic;endFill=1;dashed=1;exitX=0.5;exitY=1;exitDx=0;exitDy=0;exitPerimeter=0;entryX=0;entryY=0.25;entryDx=0;entryDy=0;entryPerimeter=0;" edge="1" parent="1" source="apigw" target="cloudwatch">
          <mxGeometry relative="1" as="geometry">
            <Array as="points">
              <mxPoint x="519" y="550" />
              <mxPoint x="620" y="550" />
              <mxPoint x="620" y="620" />
            </Array>
          </mxGeometry>
        </mxCell>
        <mxCell id="flow8-label" value="Access Logs" style="edgeLabel;html=1;align=center;verticalAlign=middle;resizable=0;points=[];fontSize=11;fontColor=#E7157B;" vertex="1" connectable="0" parent="flow8">
          <mxGeometry x="-0.1" y="1" relative="1" as="geometry">
            <mxPoint x="-10" y="-5" as="offset" />
          </mxGeometry>
        </mxCell>

        <!-- Legend -->
        <mxCell id="legend-box" value="" style="rounded=1;whiteSpace=wrap;html=1;fillColor=#f5f5f5;strokeColor=#666666;fontColor=#333333;" vertex="1" parent="1">
          <mxGeometry x="80" y="600" width="280" height="140" as="geometry" />
        </mxCell>
        <mxCell id="legend-title" value="&lt;b&gt;Legend&lt;/b&gt;" style="text;html=1;strokeColor=none;fillColor=none;align=left;verticalAlign=middle;whiteSpace=wrap;rounded=0;fontSize=14;" vertex="1" parent="1">
          <mxGeometry x="95" y="610" width="100" height="20" as="geometry" />
        </mxCell>
        <mxCell id="legend1" value="" style="endArrow=classic;html=1;rounded=0;strokeWidth=2;strokeColor=#0066CC;endFill=1;" edge="1" parent="1">
          <mxGeometry width="50" height="50" relative="1" as="geometry">
            <mxPoint x="95" y="645" as="sourcePoint" />
            <mxPoint x="145" y="645" as="targetPoint" />
          </mxGeometry>
        </mxCell>
        <mxCell id="legend1-label" value="HTTPS Request/Response" style="text;html=1;strokeColor=none;fillColor=none;align=left;verticalAlign=middle;whiteSpace=wrap;rounded=0;fontSize=11;" vertex="1" parent="1">
          <mxGeometry x="155" y="635" width="190" height="20" as="geometry" />
        </mxCell>
        <mxCell id="legend2" value="" style="endArrow=classic;html=1;rounded=0;strokeWidth=2;strokeColor=#ED7100;endFill=1;" edge="1" parent="1">
          <mxGeometry width="50" height="50" relative="1" as="geometry">
            <mxPoint x="95" y="670" as="sourcePoint" />
            <mxPoint x="145" y="670" as="targetPoint" />
          </mxGeometry>
        </mxCell>
        <mxCell id="legend2-label" value="Internal AWS Integration" style="text;html=1;strokeColor=none;fillColor=none;align=left;verticalAlign=middle;whiteSpace=wrap;rounded=0;fontSize=11;" vertex="1" parent="1">
          <mxGeometry x="155" y="660" width="190" height="20" as="geometry" />
        </mxCell>
        <mxCell id="legend3" value="" style="endArrow=classic;html=1;rounded=0;strokeWidth=2;strokeColor=#DD344C;endFill=1;dashed=1;" edge="1" parent="1">
          <mxGeometry width="50" height="50" relative="1" as="geometry">
            <mxPoint x="95" y="695" as="sourcePoint" />
            <mxPoint x="145" y="695" as="targetPoint" />
          </mxGeometry>
        </mxCell>
        <mxCell id="legend3-label" value="IAM Role-based Access" style="text;html=1;strokeColor=none;fillColor=none;align=left;verticalAlign=middle;whiteSpace=wrap;rounded=0;fontSize=11;" vertex="1" parent="1">
          <mxGeometry x="155" y="685" width="190" height="20" as="geometry" />
        </mxCell>
        <mxCell id="legend4" value="" style="endArrow=classic;html=1;rounded=0;strokeWidth=2;strokeColor=#4285F4;endFill=1;" edge="1" parent="1">
          <mxGeometry width="50" height="50" relative="1" as="geometry">
            <mxPoint x="95" y="720" as="sourcePoint" />
            <mxPoint x="145" y="720" as="targetPoint" />
          </mxGeometry>
        </mxCell>
        <mxCell id="legend4-label" value="External API Call" style="text;html=1;strokeColor=none;fillColor=none;align=left;verticalAlign=middle;whiteSpace=wrap;rounded=0;fontSize=11;" vertex="1" parent="1">
          <mxGeometry x="155" y="710" width="190" height="20" as="geometry" />
        </mxCell>

        <!-- Note: Timeout Issue -->
        <mxCell id="note-box" value="" style="rounded=1;whiteSpace=wrap;html=1;fillColor=#fff2cc;strokeColor=#d6b656;" vertex="1" parent="1">
          <mxGeometry x="80" y="120" width="280" height="100" as="geometry" />
        </mxCell>
        <mxCell id="note-title" value="⚠️ &lt;b&gt;Known Issue: API Timeout&lt;/b&gt;" style="text;html=1;strokeColor=none;fillColor=none;align=left;verticalAlign=middle;whiteSpace=wrap;rounded=0;fontSize=12;" vertex="1" parent="1">
          <mxGeometry x="95" y="130" width="250" height="20" as="geometry" />
        </mxCell>
        <mxCell id="note-content" value="• API Gateway HTTP API: 29s limit&lt;br&gt;• Gemini API response: ~29s&lt;br&gt;• Current solution: sessionStorage cache&lt;br&gt;• Future: ECS or async processing" style="text;html=1;strokeColor=none;fillColor=none;align=left;verticalAlign=top;whiteSpace=wrap;rounded=0;fontSize=10;" vertex="1" parent="1">
          <mxGeometry x="95" y="155" width="250" height="60" as="geometry" />
        </mxCell>

      </root>
    </mxGraphModel>
  </diagram>
</mxfile>
